<svg xmlns="http://www.w3.org/2000/svg" width="200" height="120.33" viewBox="0 0 200 120.33">
  <g id="usFlag" transform="translate(-2418 -61)">
    <g id="dkFlag" transform="translate(222)">
      <rect id="Rectangle_1" data-name="Rectangle 1" width="200" height="120" transform="translate(2196 61)" fill="#fff"/>
      <rect id="Rectangle_3" data-name="Rectangle 3" width="9.33" height="200" transform="translate(2396 61) rotate(90)" fill="#b22234"/>
      <path id="Path_18" data-name="Path 18" d="M-1,0H9.33V200H0Z" transform="translate(2396 80) rotate(90)" fill="#b22234"/>
      <rect id="Rectangle_3-2" data-name="Rectangle 3" width="9.33" height="200" transform="translate(2396 98) rotate(90)" fill="#b22234"/>
      <rect id="Rectangle_3-3" data-name="Rectangle 3" width="9.33" height="200" transform="translate(2396 116) rotate(90)" fill="#b22234"/>
      <rect id="Rectangle_3-4" data-name="Rectangle 3" width="9.33" height="200" transform="translate(2396 134) rotate(90)" fill="#b22234"/>
      <rect id="Rectangle_3-5" data-name="Rectangle 3" width="9.33" height="200" transform="translate(2396 153) rotate(90)" fill="#b22234"/>
      <rect id="Rectangle_3-6" data-name="Rectangle 3" width="9.33" height="200" transform="translate(2396 172) rotate(90)" fill="#b22234"/>
    </g>
    <rect id="Rectangle_6" data-name="Rectangle 6" width="86" height="64.33" transform="translate(2418 61)" fill="#3c3b6e"/>
    <g id="Group_20" data-name="Group 20" transform="translate(-4.395 -9.375)">
      <g id="Group_7" data-name="Group 7" transform="translate(2426.193 124.351)">
        <path id="Icon_awesome-star" data-name="Icon awesome-star" d="M4.328.214l-.789,1.6-1.766.257a.387.387,0,0,0-.214.66L2.836,3.977l-.3,1.759a.387.387,0,0,0,.561.407l1.58-.83,1.58.83a.387.387,0,0,0,.561-.407l-.3-1.759L7.79,2.732a.387.387,0,0,0-.214-.66L5.811,1.815,5.021.214a.387.387,0,0,0-.694,0Z" transform="translate(-1.441 0.001)" fill="#fff"/>
        <path id="Icon_awesome-star-2" data-name="Icon awesome-star" d="M4.328.214l-.789,1.6-1.766.257a.387.387,0,0,0-.214.66L2.836,3.977l-.3,1.759a.387.387,0,0,0,.561.407l1.58-.83,1.58.83a.387.387,0,0,0,.561-.407l-.3-1.759L7.79,2.732a.387.387,0,0,0-.214-.66L5.811,1.815,5.021.214a.387.387,0,0,0-.694,0Z" transform="translate(12.946 0.001)" fill="#fff"/>
        <path id="Icon_awesome-star-3" data-name="Icon awesome-star" d="M4.328.214l-.789,1.6-1.766.257a.387.387,0,0,0-.214.66L2.836,3.977l-.3,1.759a.387.387,0,0,0,.561.407l1.58-.83,1.58.83a.387.387,0,0,0,.561-.407l-.3-1.759L7.79,2.732a.387.387,0,0,0-.214-.66L5.811,1.815,5.021.214a.387.387,0,0,0-.694,0Z" transform="translate(27.334 0.001)" fill="#fff"/>
        <path id="Icon_awesome-star-4" data-name="Icon awesome-star" d="M4.328.214l-.789,1.6-1.766.257a.387.387,0,0,0-.214.66L2.836,3.977l-.3,1.759a.387.387,0,0,0,.561.407l1.58-.83,1.58.83a.387.387,0,0,0,.561-.407l-.3-1.759L7.79,2.732a.387.387,0,0,0-.214-.66L5.811,1.815,5.021.214a.387.387,0,0,0-.694,0Z" transform="translate(41.722 0.001)" fill="#fff"/>
        <path id="Icon_awesome-star-5" data-name="Icon awesome-star" d="M4.328.214l-.789,1.6-1.766.257a.387.387,0,0,0-.214.66L2.836,3.977l-.3,1.759a.387.387,0,0,0,.561.407l1.58-.83,1.58.83a.387.387,0,0,0,.561-.407l-.3-1.759L7.79,2.732a.387.387,0,0,0-.214-.66L5.811,1.815,5.021.214a.387.387,0,0,0-.694,0Z" transform="translate(56.109 0.001)" fill="#fff"/>
        <path id="Icon_awesome-star-6" data-name="Icon awesome-star" d="M4.328.214l-.789,1.6-1.766.257a.387.387,0,0,0-.214.66L2.836,3.977l-.3,1.759a.387.387,0,0,0,.561.407l1.58-.83,1.58.83a.387.387,0,0,0,.561-.407l-.3-1.759L7.79,2.732a.387.387,0,0,0-.214-.66L5.811,1.815,5.021.214a.387.387,0,0,0-.694,0Z" transform="translate(70.497 0.001)" fill="#fff"/>
      </g>
      <g id="Group_11" data-name="Group 11" transform="translate(2426.193 111.899)">
        <path id="Icon_awesome-star-7" data-name="Icon awesome-star" d="M4.328.214l-.789,1.6-1.766.257a.387.387,0,0,0-.214.66L2.836,3.977l-.3,1.759a.387.387,0,0,0,.561.407l1.58-.83,1.58.83a.387.387,0,0,0,.561-.407l-.3-1.759L7.79,2.732a.387.387,0,0,0-.214-.66L5.811,1.815,5.021.214a.387.387,0,0,0-.694,0Z" transform="translate(-1.441 0.001)" fill="#fff"/>
        <path id="Icon_awesome-star-8" data-name="Icon awesome-star" d="M4.328.214l-.789,1.6-1.766.257a.387.387,0,0,0-.214.66L2.836,3.977l-.3,1.759a.387.387,0,0,0,.561.407l1.58-.83,1.58.83a.387.387,0,0,0,.561-.407l-.3-1.759L7.79,2.732a.387.387,0,0,0-.214-.66L5.811,1.815,5.021.214a.387.387,0,0,0-.694,0Z" transform="translate(12.946 0.001)" fill="#fff"/>
        <path id="Icon_awesome-star-9" data-name="Icon awesome-star" d="M4.328.214l-.789,1.6-1.766.257a.387.387,0,0,0-.214.66L2.836,3.977l-.3,1.759a.387.387,0,0,0,.561.407l1.58-.83,1.58.83a.387.387,0,0,0,.561-.407l-.3-1.759L7.79,2.732a.387.387,0,0,0-.214-.66L5.811,1.815,5.021.214a.387.387,0,0,0-.694,0Z" transform="translate(27.334 0.001)" fill="#fff"/>
        <path id="Icon_awesome-star-10" data-name="Icon awesome-star" d="M4.328.214l-.789,1.6-1.766.257a.387.387,0,0,0-.214.66L2.836,3.977l-.3,1.759a.387.387,0,0,0,.561.407l1.58-.83,1.58.83a.387.387,0,0,0,.561-.407l-.3-1.759L7.79,2.732a.387.387,0,0,0-.214-.66L5.811,1.815,5.021.214a.387.387,0,0,0-.694,0Z" transform="translate(41.722 0.001)" fill="#fff"/>
        <path id="Icon_awesome-star-11" data-name="Icon awesome-star" d="M4.328.214l-.789,1.6-1.766.257a.387.387,0,0,0-.214.66L2.836,3.977l-.3,1.759a.387.387,0,0,0,.561.407l1.58-.83,1.58.83a.387.387,0,0,0,.561-.407l-.3-1.759L7.79,2.732a.387.387,0,0,0-.214-.66L5.811,1.815,5.021.214a.387.387,0,0,0-.694,0Z" transform="translate(56.109 0.001)" fill="#fff"/>
        <path id="Icon_awesome-star-12" data-name="Icon awesome-star" d="M4.328.214l-.789,1.6-1.766.257a.387.387,0,0,0-.214.66L2.836,3.977l-.3,1.759a.387.387,0,0,0,.561.407l1.58-.83,1.58.83a.387.387,0,0,0,.561-.407l-.3-1.759L7.79,2.732a.387.387,0,0,0-.214-.66L5.811,1.815,5.021.214a.387.387,0,0,0-.694,0Z" transform="translate(70.497 0.001)" fill="#fff"/>
      </g>
      <g id="Group_15" data-name="Group 15" transform="translate(2426.193 99.446)">
        <path id="Icon_awesome-star-13" data-name="Icon awesome-star" d="M4.328.214l-.789,1.6-1.766.257a.387.387,0,0,0-.214.66L2.836,3.977l-.3,1.759a.387.387,0,0,0,.561.407l1.58-.83,1.58.83a.387.387,0,0,0,.561-.407l-.3-1.759L7.79,2.732a.387.387,0,0,0-.214-.66L5.811,1.815,5.021.214a.387.387,0,0,0-.694,0Z" transform="translate(-1.441 0.001)" fill="#fff"/>
        <path id="Icon_awesome-star-14" data-name="Icon awesome-star" d="M4.328.214l-.789,1.6-1.766.257a.387.387,0,0,0-.214.66L2.836,3.977l-.3,1.759a.387.387,0,0,0,.561.407l1.58-.83,1.58.83a.387.387,0,0,0,.561-.407l-.3-1.759L7.79,2.732a.387.387,0,0,0-.214-.66L5.811,1.815,5.021.214a.387.387,0,0,0-.694,0Z" transform="translate(12.946 0.001)" fill="#fff"/>
        <path id="Icon_awesome-star-15" data-name="Icon awesome-star" d="M4.328.214l-.789,1.6-1.766.257a.387.387,0,0,0-.214.66L2.836,3.977l-.3,1.759a.387.387,0,0,0,.561.407l1.58-.83,1.58.83a.387.387,0,0,0,.561-.407l-.3-1.759L7.79,2.732a.387.387,0,0,0-.214-.66L5.811,1.815,5.021.214a.387.387,0,0,0-.694,0Z" transform="translate(27.334 0.001)" fill="#fff"/>
        <path id="Icon_awesome-star-16" data-name="Icon awesome-star" d="M4.328.214l-.789,1.6-1.766.257a.387.387,0,0,0-.214.66L2.836,3.977l-.3,1.759a.387.387,0,0,0,.561.407l1.58-.83,1.58.83a.387.387,0,0,0,.561-.407l-.3-1.759L7.79,2.732a.387.387,0,0,0-.214-.66L5.811,1.815,5.021.214a.387.387,0,0,0-.694,0Z" transform="translate(41.722 0.001)" fill="#fff"/>
        <path id="Icon_awesome-star-17" data-name="Icon awesome-star" d="M4.328.214l-.789,1.6-1.766.257a.387.387,0,0,0-.214.66L2.836,3.977l-.3,1.759a.387.387,0,0,0,.561.407l1.58-.83,1.58.83a.387.387,0,0,0,.561-.407l-.3-1.759L7.79,2.732a.387.387,0,0,0-.214-.66L5.811,1.815,5.021.214a.387.387,0,0,0-.694,0Z" transform="translate(56.109 0.001)" fill="#fff"/>
        <path id="Icon_awesome-star-18" data-name="Icon awesome-star" d="M4.328.214l-.789,1.6-1.766.257a.387.387,0,0,0-.214.66L2.836,3.977l-.3,1.759a.387.387,0,0,0,.561.407l1.58-.83,1.58.83a.387.387,0,0,0,.561-.407l-.3-1.759L7.79,2.732a.387.387,0,0,0-.214-.66L5.811,1.815,5.021.214a.387.387,0,0,0-.694,0Z" transform="translate(70.497 0.001)" fill="#fff"/>
      </g>
      <g id="Group_17" data-name="Group 17" transform="translate(2426.193 86.993)">
        <path id="Icon_awesome-star-19" data-name="Icon awesome-star" d="M4.328.214l-.789,1.6-1.766.257a.387.387,0,0,0-.214.66L2.836,3.977l-.3,1.759a.387.387,0,0,0,.561.407l1.58-.83,1.58.83a.387.387,0,0,0,.561-.407l-.3-1.759L7.79,2.732a.387.387,0,0,0-.214-.66L5.811,1.815,5.021.214a.387.387,0,0,0-.694,0Z" transform="translate(-1.441 0.001)" fill="#fff"/>
        <path id="Icon_awesome-star-20" data-name="Icon awesome-star" d="M4.328.214l-.789,1.6-1.766.257a.387.387,0,0,0-.214.66L2.836,3.977l-.3,1.759a.387.387,0,0,0,.561.407l1.58-.83,1.58.83a.387.387,0,0,0,.561-.407l-.3-1.759L7.79,2.732a.387.387,0,0,0-.214-.66L5.811,1.815,5.021.214a.387.387,0,0,0-.694,0Z" transform="translate(12.946 0.001)" fill="#fff"/>
        <path id="Icon_awesome-star-21" data-name="Icon awesome-star" d="M4.328.214l-.789,1.6-1.766.257a.387.387,0,0,0-.214.66L2.836,3.977l-.3,1.759a.387.387,0,0,0,.561.407l1.58-.83,1.58.83a.387.387,0,0,0,.561-.407l-.3-1.759L7.79,2.732a.387.387,0,0,0-.214-.66L5.811,1.815,5.021.214a.387.387,0,0,0-.694,0Z" transform="translate(27.334 0.001)" fill="#fff"/>
        <path id="Icon_awesome-star-22" data-name="Icon awesome-star" d="M4.328.214l-.789,1.6-1.766.257a.387.387,0,0,0-.214.66L2.836,3.977l-.3,1.759a.387.387,0,0,0,.561.407l1.58-.83,1.58.83a.387.387,0,0,0,.561-.407l-.3-1.759L7.79,2.732a.387.387,0,0,0-.214-.66L5.811,1.815,5.021.214a.387.387,0,0,0-.694,0Z" transform="translate(41.722 0.001)" fill="#fff"/>
        <path id="Icon_awesome-star-23" data-name="Icon awesome-star" d="M4.328.214l-.789,1.6-1.766.257a.387.387,0,0,0-.214.66L2.836,3.977l-.3,1.759a.387.387,0,0,0,.561.407l1.58-.83,1.58.83a.387.387,0,0,0,.561-.407l-.3-1.759L7.79,2.732a.387.387,0,0,0-.214-.66L5.811,1.815,5.021.214a.387.387,0,0,0-.694,0Z" transform="translate(56.109 0.001)" fill="#fff"/>
        <path id="Icon_awesome-star-24" data-name="Icon awesome-star" d="M4.328.214l-.789,1.6-1.766.257a.387.387,0,0,0-.214.66L2.836,3.977l-.3,1.759a.387.387,0,0,0,.561.407l1.58-.83,1.58.83a.387.387,0,0,0,.561-.407l-.3-1.759L7.79,2.732a.387.387,0,0,0-.214-.66L5.811,1.815,5.021.214a.387.387,0,0,0-.694,0Z" transform="translate(70.497 0.001)" fill="#fff"/>
      </g>
      <g id="Group_19" data-name="Group 19" transform="translate(2426.193 74.54)">
        <path id="Icon_awesome-star-25" data-name="Icon awesome-star" d="M4.328.214l-.789,1.6-1.766.257a.387.387,0,0,0-.214.66L2.836,3.977l-.3,1.759a.387.387,0,0,0,.561.407l1.58-.83,1.58.83a.387.387,0,0,0,.561-.407l-.3-1.759L7.79,2.732a.387.387,0,0,0-.214-.66L5.811,1.815,5.021.214a.387.387,0,0,0-.694,0Z" transform="translate(-1.441 0.001)" fill="#fff"/>
        <path id="Icon_awesome-star-26" data-name="Icon awesome-star" d="M4.328.214l-.789,1.6-1.766.257a.387.387,0,0,0-.214.66L2.836,3.977l-.3,1.759a.387.387,0,0,0,.561.407l1.58-.83,1.58.83a.387.387,0,0,0,.561-.407l-.3-1.759L7.79,2.732a.387.387,0,0,0-.214-.66L5.811,1.815,5.021.214a.387.387,0,0,0-.694,0Z" transform="translate(12.946 0.001)" fill="#fff"/>
        <path id="Icon_awesome-star-27" data-name="Icon awesome-star" d="M4.328.214l-.789,1.6-1.766.257a.387.387,0,0,0-.214.66L2.836,3.977l-.3,1.759a.387.387,0,0,0,.561.407l1.58-.83,1.58.83a.387.387,0,0,0,.561-.407l-.3-1.759L7.79,2.732a.387.387,0,0,0-.214-.66L5.811,1.815,5.021.214a.387.387,0,0,0-.694,0Z" transform="translate(27.334 0.001)" fill="#fff"/>
        <path id="Icon_awesome-star-28" data-name="Icon awesome-star" d="M4.328.214l-.789,1.6-1.766.257a.387.387,0,0,0-.214.66L2.836,3.977l-.3,1.759a.387.387,0,0,0,.561.407l1.58-.83,1.58.83a.387.387,0,0,0,.561-.407l-.3-1.759L7.79,2.732a.387.387,0,0,0-.214-.66L5.811,1.815,5.021.214a.387.387,0,0,0-.694,0Z" transform="translate(41.722 0.001)" fill="#fff"/>
        <path id="Icon_awesome-star-29" data-name="Icon awesome-star" d="M4.328.214l-.789,1.6-1.766.257a.387.387,0,0,0-.214.66L2.836,3.977l-.3,1.759a.387.387,0,0,0,.561.407l1.58-.83,1.58.83a.387.387,0,0,0,.561-.407l-.3-1.759L7.79,2.732a.387.387,0,0,0-.214-.66L5.811,1.815,5.021.214a.387.387,0,0,0-.694,0Z" transform="translate(56.109 0.001)" fill="#fff"/>
        <path id="Icon_awesome-star-30" data-name="Icon awesome-star" d="M4.328.214l-.789,1.6-1.766.257a.387.387,0,0,0-.214.66L2.836,3.977l-.3,1.759a.387.387,0,0,0,.561.407l1.58-.83,1.58.83a.387.387,0,0,0,.561-.407l-.3-1.759L7.79,2.732a.387.387,0,0,0-.214-.66L5.811,1.815,5.021.214a.387.387,0,0,0-.694,0Z" transform="translate(70.497 0.001)" fill="#fff"/>
      </g>
      <g id="Group_8" data-name="Group 8" transform="translate(2433.001 118.088)">
        <path id="Icon_awesome-star-31" data-name="Icon awesome-star" d="M4.362.217l-.8,1.62L1.777,2.1a.392.392,0,0,0-.217.668l1.293,1.26L2.547,5.8a.391.391,0,0,0,.568.412l1.6-.84,1.6.84A.391.391,0,0,0,6.88,5.8l-.306-1.78,1.293-1.26A.392.392,0,0,0,7.65,2.1L5.863,1.837l-.8-1.62a.392.392,0,0,0-.7,0Z" transform="translate(-1.441 0.001)" fill="#fff"/>
        <path id="Icon_awesome-star-32" data-name="Icon awesome-star" d="M4.362.217l-.8,1.62L1.777,2.1a.392.392,0,0,0-.217.668l1.293,1.26L2.547,5.8a.391.391,0,0,0,.568.412l1.6-.84,1.6.84A.391.391,0,0,0,6.88,5.8l-.306-1.78,1.293-1.26A.392.392,0,0,0,7.65,2.1L5.863,1.837l-.8-1.62a.392.392,0,0,0-.7,0Z" transform="translate(13.119 0.001)" fill="#fff"/>
        <path id="Icon_awesome-star-33" data-name="Icon awesome-star" d="M4.362.217l-.8,1.62L1.777,2.1a.392.392,0,0,0-.217.668l1.293,1.26L2.547,5.8a.391.391,0,0,0,.568.412l1.6-.84,1.6.84A.391.391,0,0,0,6.88,5.8l-.306-1.78,1.293-1.26A.392.392,0,0,0,7.65,2.1L5.863,1.837l-.8-1.62a.392.392,0,0,0-.7,0Z" transform="translate(27.68 0.001)" fill="#fff"/>
        <path id="Icon_awesome-star-34" data-name="Icon awesome-star" d="M4.362.217l-.8,1.62L1.777,2.1a.392.392,0,0,0-.217.668l1.293,1.26L2.547,5.8a.391.391,0,0,0,.568.412l1.6-.84,1.6.84A.391.391,0,0,0,6.88,5.8l-.306-1.78,1.293-1.26A.392.392,0,0,0,7.65,2.1L5.863,1.837l-.8-1.62a.392.392,0,0,0-.7,0Z" transform="translate(42.241 0.001)" fill="#fff"/>
        <path id="Icon_awesome-star-35" data-name="Icon awesome-star" d="M4.362.217l-.8,1.62L1.777,2.1a.392.392,0,0,0-.217.668l1.293,1.26L2.547,5.8a.391.391,0,0,0,.568.412l1.6-.84,1.6.84A.391.391,0,0,0,6.88,5.8l-.306-1.78,1.293-1.26A.392.392,0,0,0,7.65,2.1L5.863,1.837l-.8-1.62a.392.392,0,0,0-.7,0Z" transform="translate(56.802 0.001)" fill="#fff"/>
      </g>
      <g id="Group_12" data-name="Group 12" transform="translate(2433.001 105.635)">
        <path id="Icon_awesome-star-36" data-name="Icon awesome-star" d="M4.362.217l-.8,1.62L1.777,2.1a.392.392,0,0,0-.217.668l1.293,1.26L2.547,5.8a.391.391,0,0,0,.568.412l1.6-.84,1.6.84A.391.391,0,0,0,6.88,5.8l-.306-1.78,1.293-1.26A.392.392,0,0,0,7.65,2.1L5.863,1.837l-.8-1.62a.392.392,0,0,0-.7,0Z" transform="translate(-1.441 0.001)" fill="#fff"/>
        <path id="Icon_awesome-star-37" data-name="Icon awesome-star" d="M4.362.217l-.8,1.62L1.777,2.1a.392.392,0,0,0-.217.668l1.293,1.26L2.547,5.8a.391.391,0,0,0,.568.412l1.6-.84,1.6.84A.391.391,0,0,0,6.88,5.8l-.306-1.78,1.293-1.26A.392.392,0,0,0,7.65,2.1L5.863,1.837l-.8-1.62a.392.392,0,0,0-.7,0Z" transform="translate(13.119 0.001)" fill="#fff"/>
        <path id="Icon_awesome-star-38" data-name="Icon awesome-star" d="M4.362.217l-.8,1.62L1.777,2.1a.392.392,0,0,0-.217.668l1.293,1.26L2.547,5.8a.391.391,0,0,0,.568.412l1.6-.84,1.6.84A.391.391,0,0,0,6.88,5.8l-.306-1.78,1.293-1.26A.392.392,0,0,0,7.65,2.1L5.863,1.837l-.8-1.62a.392.392,0,0,0-.7,0Z" transform="translate(27.68 0.001)" fill="#fff"/>
        <path id="Icon_awesome-star-39" data-name="Icon awesome-star" d="M4.362.217l-.8,1.62L1.777,2.1a.392.392,0,0,0-.217.668l1.293,1.26L2.547,5.8a.391.391,0,0,0,.568.412l1.6-.84,1.6.84A.391.391,0,0,0,6.88,5.8l-.306-1.78,1.293-1.26A.392.392,0,0,0,7.65,2.1L5.863,1.837l-.8-1.62a.392.392,0,0,0-.7,0Z" transform="translate(42.241 0.001)" fill="#fff"/>
        <path id="Icon_awesome-star-40" data-name="Icon awesome-star" d="M4.362.217l-.8,1.62L1.777,2.1a.392.392,0,0,0-.217.668l1.293,1.26L2.547,5.8a.391.391,0,0,0,.568.412l1.6-.84,1.6.84A.391.391,0,0,0,6.88,5.8l-.306-1.78,1.293-1.26A.392.392,0,0,0,7.65,2.1L5.863,1.837l-.8-1.62a.392.392,0,0,0-.7,0Z" transform="translate(56.802 0.001)" fill="#fff"/>
      </g>
      <g id="Group_16" data-name="Group 16" transform="translate(2433.001 93.182)">
        <path id="Icon_awesome-star-41" data-name="Icon awesome-star" d="M4.362.217l-.8,1.62L1.777,2.1a.392.392,0,0,0-.217.668l1.293,1.26L2.547,5.8a.391.391,0,0,0,.568.412l1.6-.84,1.6.84A.391.391,0,0,0,6.88,5.8l-.306-1.78,1.293-1.26A.392.392,0,0,0,7.65,2.1L5.863,1.837l-.8-1.62a.392.392,0,0,0-.7,0Z" transform="translate(-1.441 0.001)" fill="#fff"/>
        <path id="Icon_awesome-star-42" data-name="Icon awesome-star" d="M4.362.217l-.8,1.62L1.777,2.1a.392.392,0,0,0-.217.668l1.293,1.26L2.547,5.8a.391.391,0,0,0,.568.412l1.6-.84,1.6.84A.391.391,0,0,0,6.88,5.8l-.306-1.78,1.293-1.26A.392.392,0,0,0,7.65,2.1L5.863,1.837l-.8-1.62a.392.392,0,0,0-.7,0Z" transform="translate(13.119 0.001)" fill="#fff"/>
        <path id="Icon_awesome-star-43" data-name="Icon awesome-star" d="M4.362.217l-.8,1.62L1.777,2.1a.392.392,0,0,0-.217.668l1.293,1.26L2.547,5.8a.391.391,0,0,0,.568.412l1.6-.84,1.6.84A.391.391,0,0,0,6.88,5.8l-.306-1.78,1.293-1.26A.392.392,0,0,0,7.65,2.1L5.863,1.837l-.8-1.62a.392.392,0,0,0-.7,0Z" transform="translate(27.68 0.001)" fill="#fff"/>
        <path id="Icon_awesome-star-44" data-name="Icon awesome-star" d="M4.362.217l-.8,1.62L1.777,2.1a.392.392,0,0,0-.217.668l1.293,1.26L2.547,5.8a.391.391,0,0,0,.568.412l1.6-.84,1.6.84A.391.391,0,0,0,6.88,5.8l-.306-1.78,1.293-1.26A.392.392,0,0,0,7.65,2.1L5.863,1.837l-.8-1.62a.392.392,0,0,0-.7,0Z" transform="translate(42.241 0.001)" fill="#fff"/>
        <path id="Icon_awesome-star-45" data-name="Icon awesome-star" d="M4.362.217l-.8,1.62L1.777,2.1a.392.392,0,0,0-.217.668l1.293,1.26L2.547,5.8a.391.391,0,0,0,.568.412l1.6-.84,1.6.84A.391.391,0,0,0,6.88,5.8l-.306-1.78,1.293-1.26A.392.392,0,0,0,7.65,2.1L5.863,1.837l-.8-1.62a.392.392,0,0,0-.7,0Z" transform="translate(56.802 0.001)" fill="#fff"/>
      </g>
      <g id="Group_18" data-name="Group 18" transform="translate(2433.002 80.73)">
        <path id="Icon_awesome-star-46" data-name="Icon awesome-star" d="M4.362.217l-.8,1.62L1.777,2.1a.392.392,0,0,0-.217.668l1.293,1.26L2.547,5.8a.391.391,0,0,0,.568.412l1.6-.84,1.6.84A.391.391,0,0,0,6.88,5.8l-.306-1.78,1.293-1.26A.392.392,0,0,0,7.65,2.1L5.863,1.837l-.8-1.62a.392.392,0,0,0-.7,0Z" transform="translate(-1.441 0.001)" fill="#fff"/>
        <path id="Icon_awesome-star-47" data-name="Icon awesome-star" d="M4.362.217l-.8,1.62L1.777,2.1a.392.392,0,0,0-.217.668l1.293,1.26L2.547,5.8a.391.391,0,0,0,.568.412l1.6-.84,1.6.84A.391.391,0,0,0,6.88,5.8l-.306-1.78,1.293-1.26A.392.392,0,0,0,7.65,2.1L5.863,1.837l-.8-1.62a.392.392,0,0,0-.7,0Z" transform="translate(13.119 0.001)" fill="#fff"/>
        <path id="Icon_awesome-star-48" data-name="Icon awesome-star" d="M4.362.217l-.8,1.62L1.777,2.1a.392.392,0,0,0-.217.668l1.293,1.26L2.547,5.8a.391.391,0,0,0,.568.412l1.6-.84,1.6.84A.391.391,0,0,0,6.88,5.8l-.306-1.78,1.293-1.26A.392.392,0,0,0,7.65,2.1L5.863,1.837l-.8-1.62a.392.392,0,0,0-.7,0Z" transform="translate(27.68 0.001)" fill="#fff"/>
        <path id="Icon_awesome-star-49" data-name="Icon awesome-star" d="M4.362.217l-.8,1.62L1.777,2.1a.392.392,0,0,0-.217.668l1.293,1.26L2.547,5.8a.391.391,0,0,0,.568.412l1.6-.84,1.6.84A.391.391,0,0,0,6.88,5.8l-.306-1.78,1.293-1.26A.392.392,0,0,0,7.65,2.1L5.863,1.837l-.8-1.62a.392.392,0,0,0-.7,0Z" transform="translate(42.241 0.001)" fill="#fff"/>
        <path id="Icon_awesome-star-50" data-name="Icon awesome-star" d="M4.362.217l-.8,1.62L1.777,2.1a.392.392,0,0,0-.217.668l1.293,1.26L2.547,5.8a.391.391,0,0,0,.568.412l1.6-.84,1.6.84A.391.391,0,0,0,6.88,5.8l-.306-1.78,1.293-1.26A.392.392,0,0,0,7.65,2.1L5.863,1.837l-.8-1.62a.392.392,0,0,0-.7,0Z" transform="translate(56.802 0.001)" fill="#fff"/>
      </g>
    </g>
  </g>
</svg>
